<svg xmlns="http://www.w3.org/2000/svg" viewBox="0 0 800 560">
  <defs>
    <linearGradient id="bg" x1="0" y1="0" x2="1" y2="1">
      <stop offset="0" stop-color="#d8f6ea"/>
      <stop offset="1" stop-color="#ebfff7"/>
    </linearGradient>
    <radialGradient id="fur" cx="50%" cy="45%" r="62%">
      <stop offset="0" stop-color="#4f5a61"/>
      <stop offset="1" stop-color="#242b31"/>
    </radialGradient>
  </defs>

  <rect width="800" height="560" fill="url(#bg)"/>
  <ellipse cx="400" cy="470" rx="270" ry="38" fill="#101a1526"/>

  <path d="M252 174 L326 226 L260 248 Z" fill="#2d3339"/>
  <path d="M548 174 L474 226 L540 248 Z" fill="#2d3339"/>
  <path d="M274 184 L320 218 L280 234 Z" fill="#6f7a82"/>
  <path d="M526 184 L480 218 L520 234 Z" fill="#6f7a82"/>

  <ellipse cx="400" cy="306" rx="194" ry="156" fill="url(#fur)"/>
  <path d="M300 282 C340 240, 460 240, 500 282 C490 352, 310 352, 300 282 Z" fill="#f1f5f8"/>
  <path d="M350 214 C370 194, 430 194, 450 214 C428 230, 372 230, 350 214 Z" fill="#e3eaee"/>

  <ellipse cx="336" cy="266" rx="33" ry="36" fill="#ffffff"/>
  <ellipse cx="464" cy="266" rx="33" ry="36" fill="#ffffff"/>
  <ellipse cx="336" cy="270" rx="13" ry="15" fill="#1a2328"/>
  <ellipse cx="464" cy="270" rx="13" ry="15" fill="#1a2328"/>
  <circle cx="341" cy="264" r="4" fill="#fff"/>
  <circle cx="469" cy="264" r="4" fill="#fff"/>

  <path d="M384 314 L400 334 L416 314 Z" fill="#f1a197"/>
  <path d="M400 334 Q374 358 346 348" stroke="#2b3338" stroke-width="6" fill="none" stroke-linecap="round"/>
  <path d="M400 334 Q426 358 454 348" stroke="#2b3338" stroke-width="6" fill="none" stroke-linecap="round"/>

  <path d="M332 338 L258 330" stroke="#f2f7fa" stroke-width="3" stroke-linecap="round"/>
  <path d="M332 350 L248 352" stroke="#f2f7fa" stroke-width="3" stroke-linecap="round"/>
  <path d="M332 362 L258 374" stroke="#f2f7fa" stroke-width="3" stroke-linecap="round"/>
  <path d="M468 338 L542 330" stroke="#f2f7fa" stroke-width="3" stroke-linecap="round"/>
  <path d="M468 350 L552 352" stroke="#f2f7fa" stroke-width="3" stroke-linecap="round"/>
  <path d="M468 362 L542 374" stroke="#f2f7fa" stroke-width="3" stroke-linecap="round"/>
</svg>
