<svg xmlns="http://www.w3.org/2000/svg" viewBox="0 0 800 560">
  <defs>
    <linearGradient id="bg" x1="0" y1="0" x2="1" y2="1">
      <stop offset="0" stop-color="#f7d9c5"/>
      <stop offset="1" stop-color="#ffeede"/>
    </linearGradient>
    <radialGradient id="fur" cx="50%" cy="45%" r="60%">
      <stop offset="0" stop-color="#ffbf92"/>
      <stop offset="1" stop-color="#e69368"/>
    </radialGradient>
    <filter id="soft" x="-20%" y="-20%" width="140%" height="140%">
      <feDropShadow dx="0" dy="10" stdDeviation="12" flood-color="#7a4328" flood-opacity="0.26"/>
    </filter>
  </defs>

  <rect width="800" height="560" fill="url(#bg)"/>
  <ellipse cx="400" cy="470" rx="270" ry="38" fill="#7c4a3222"/>

  <g filter="url(#soft)">
    <path d="M250 172 L325 226 L260 248 Z" fill="#d9855e"/>
    <path d="M550 172 L475 226 L540 248 Z" fill="#d9855e"/>
    <path d="M270 182 L322 222 L275 236 Z" fill="#ffccb1"/>
    <path d="M530 182 L478 222 L525 236 Z" fill="#ffccb1"/>

    <ellipse cx="400" cy="306" rx="196" ry="156" fill="url(#fur)"/>
    <ellipse cx="400" cy="336" rx="120" ry="98" fill="#ffe8da"/>

    <path d="M300 206 C330 232, 350 268, 340 328" stroke="#c36f46" stroke-width="12" fill="none" stroke-linecap="round"/>
    <path d="M500 206 C470 232, 450 268, 460 328" stroke="#c36f46" stroke-width="12" fill="none" stroke-linecap="round"/>
    <path d="M270 286 C315 270, 355 272, 382 294" stroke="#c36f46" stroke-width="10" fill="none" stroke-linecap="round"/>
    <path d="M530 286 C485 270, 445 272, 418 294" stroke="#c36f46" stroke-width="10" fill="none" stroke-linecap="round"/>

    <ellipse cx="336" cy="266" rx="34" ry="38" fill="#f8fbff"/>
    <ellipse cx="464" cy="266" rx="34" ry="38" fill="#f8fbff"/>
    <ellipse cx="336" cy="270" rx="14" ry="16" fill="#1f2a33"/>
    <ellipse cx="464" cy="270" rx="14" ry="16" fill="#1f2a33"/>
    <circle cx="341" cy="264" r="4" fill="#ffffff"/>
    <circle cx="469" cy="264" r="4" fill="#ffffff"/>

    <path d="M382 312 L400 336 L418 312 Z" fill="#e98272"/>
    <path d="M400 336 Q372 362 344 352" stroke="#4a2a1f" stroke-width="6" fill="none" stroke-linecap="round"/>
    <path d="M400 336 Q428 362 456 352" stroke="#4a2a1f" stroke-width="6" fill="none" stroke-linecap="round"/>

    <path d="M330 338 L258 330" stroke="#503025" stroke-width="3" stroke-linecap="round"/>
    <path d="M330 350 L248 352" stroke="#503025" stroke-width="3" stroke-linecap="round"/>
    <path d="M330 362 L258 374" stroke="#503025" stroke-width="3" stroke-linecap="round"/>
    <path d="M470 338 L542 330" stroke="#503025" stroke-width="3" stroke-linecap="round"/>
    <path d="M470 350 L552 352" stroke="#503025" stroke-width="3" stroke-linecap="round"/>
    <path d="M470 362 L542 374" stroke="#503025" stroke-width="3" stroke-linecap="round"/>
  </g>
</svg>
