<svg xmlns="http://www.w3.org/2000/svg" viewBox="0 0 800 560">
  <defs>
    <linearGradient id="bg" x1="0" y1="0" x2="1" y2="1">
      <stop offset="0" stop-color="#ece1ff"/>
      <stop offset="1" stop-color="#f6efff"/>
    </linearGradient>
    <radialGradient id="fur" cx="50%" cy="45%" r="62%">
      <stop offset="0" stop-color="#bca6d8"/>
      <stop offset="1" stop-color="#8f789f"/>
    </radialGradient>
  </defs>

  <rect width="800" height="560" fill="url(#bg)"/>
  <ellipse cx="400" cy="470" rx="270" ry="38" fill="#3c2d4f20"/>

  <path d="M252 174 L326 226 L260 248 Z" fill="#89739c"/>
  <path d="M548 174 L474 226 L540 248 Z" fill="#89739c"/>
  <path d="M274 184 L320 218 L280 234 Z" fill="#cdbfdc"/>
  <path d="M526 184 L480 218 L520 234 Z" fill="#cdbfdc"/>

  <ellipse cx="400" cy="306" rx="194" ry="156" fill="url(#fur)"/>
  <ellipse cx="400" cy="334" rx="116" ry="96" fill="#efe7f4"/>

  <path d="M286 244 C320 220, 350 220, 378 246" stroke="#765d87" stroke-width="10" fill="none" stroke-linecap="round"/>
  <path d="M514 244 C480 220, 450 220, 422 246" stroke="#765d87" stroke-width="10" fill="none" stroke-linecap="round"/>
  <path d="M278 304 C318 278, 352 280, 382 304" stroke="#765d87" stroke-width="10" fill="none" stroke-linecap="round"/>
  <path d="M522 304 C482 278, 448 280, 418 304" stroke="#765d87" stroke-width="10" fill="none" stroke-linecap="round"/>

  <ellipse cx="336" cy="266" rx="33" ry="36" fill="#ffffff"/>
  <ellipse cx="464" cy="266" rx="33" ry="36" fill="#ffffff"/>
  <ellipse cx="336" cy="270" rx="13" ry="15" fill="#2e1f3f"/>
  <ellipse cx="464" cy="270" rx="13" ry="15" fill="#2e1f3f"/>
  <circle cx="341" cy="264" r="4" fill="#fff"/>
  <circle cx="469" cy="264" r="4" fill="#fff"/>

  <path d="M384 314 L400 334 L416 314 Z" fill="#eea2bf"/>
  <path d="M400 334 Q374 358 346 348" stroke="#3c2d4f" stroke-width="6" fill="none" stroke-linecap="round"/>
  <path d="M400 334 Q426 358 454 348" stroke="#3c2d4f" stroke-width="6" fill="none" stroke-linecap="round"/>

  <path d="M332 338 L258 330" stroke="#443652" stroke-width="3" stroke-linecap="round"/>
  <path d="M332 350 L248 352" stroke="#443652" stroke-width="3" stroke-linecap="round"/>
  <path d="M332 362 L258 374" stroke="#443652" stroke-width="3" stroke-linecap="round"/>
  <path d="M468 338 L542 330" stroke="#443652" stroke-width="3" stroke-linecap="round"/>
  <path d="M468 350 L552 352" stroke="#443652" stroke-width="3" stroke-linecap="round"/>
  <path d="M468 362 L542 374" stroke="#443652" stroke-width="3" stroke-linecap="round"/>
</svg>
